<svg width="44px" height="44px" viewBox="0 0 75 75" version="1.1" xmlns="http://www.w3.org/2000/svg" xmlns:xlink="http://www.w3.org/1999/xlink">
  <!-- Generator: Sketch 39 (31667) - http://www.bohemiancoding.com/sketch -->
  <title>Fill 1</title>
  <desc>Created with Sketch.</desc>
  <defs></defs>
  <g id="Page-1" stroke="none" stroke-width="1" fill="none" fill-rule="evenodd">
    <g>
      <path d="M70.6411,0 L3.9261,0 C1.7561,0.008 0.0001,1.768 0.0001,3.939 L0.0001,13.217 L0.0001,18.873 L0.0001,70.626 L0.0001,70.641 L0.0011,70.641 C0.0101,72.807 1.7691,74.565 3.9401,74.565 L70.6271,74.565 C72.7971,74.565 74.5571,72.807 74.5651,70.641 L74.5651,64.305 L74.5651,61.874 L74.5651,36.975 L74.5651,36.643 L74.5651,10.232 L74.5651,3.926 C74.5571,1.76 72.8051,0.008 70.6411,0" id="Fill-1" fill="#FFFFFF"></path>
      <path d="M74.5651,35.0284625 L74.5651,36.643 L74.5651,36.975 L74.5651,61.874 L74.5651,64.305 L74.5651,70.641 C74.5571,72.807 72.7971,74.565 70.6271,74.565 L3.9401,74.565 C1.7691,74.565 0.0101,72.807 0.0011,70.641 L0.0001,70.641 L0.0001,70.626 L0.0001,18.873 L0.0001,13.217 L0.0001,3.939 C0.0001,1.768 1.7561,0.008 3.9261,0 L70.6411,0 C72.8051,0.008 74.5571,1.76 74.5651,3.926 L74.5651,9.05394036 L60.7562,42.2447 L56.1257934,31.1143534 L65.3033,9.0537 L54.5633,9.0537 L50.7556121,18.2057724 L46.9482,9.0537 L36.2072,9.0537 L45.3855899,31.1130363 L40.7543,42.2447 L26.9463,9.0537 L16.2053,9.0537 L35.3263,55.2927 L46.0673,55.2927 L50.7563844,44.0212001 L55.4462,55.2927 L66.1862,55.2927 L74.5651,35.0284625 Z" id="Combined-Shape" fill="#00A4BB"></path>
    </g>
  </g>
</svg>
